<svg width="40" height="40" viewBox="0 0 40 40" fill="none" xmlns="http://www.w3.org/2000/svg">
<g id="checkmark_mion1eyosjla 1" clip-path="url(#clip0_18_11)">
<path id="Vector" d="M19.9999 0C8.95422 0 0 8.95422 0 19.9999C0 31.0455 8.95422 40.0001 19.9999 40.0001C31.0455 40.0001 40.0001 31.0455 40.0001 19.9999C39.9873 8.95972 31.0404 0.0128174 19.9999 0ZM19.9999 37.9999C10.0587 37.9999 1.99988 29.941 1.99988 19.9999C1.99988 10.0587 10.0587 1.99988 19.9999 1.99988C29.941 1.99988 37.9999 10.0587 37.9999 19.9999C37.9889 29.9366 29.9366 37.9889 19.9999 37.9999Z" fill="#FFD050"/>
<path id="Vector_2" d="M28.8011 10.8288L16.9719 25.6596L10.1517 18.8205C9.51569 18.2046 8.50535 18.2136 7.88063 18.8402C7.25592 19.4668 7.24702 20.4802 7.86105 21.1181L15.961 29.2425C16.2647 29.5472 16.6771 29.7186 17.1066 29.7186C17.1363 29.7192 17.1665 29.718 17.1968 29.7156C17.6566 29.6906 18.0843 29.4705 18.372 29.1092L31.332 12.8603C31.8915 12.1588 31.7782 11.1358 31.0793 10.5753C30.3804 10.0141 29.36 10.1278 28.8011 10.8288Z" fill="#FFD050"/>
</g>
<defs>
<clipPath id="clip0_18_11">
<rect width="40" height="40" fill="white"/>
</clipPath>
</defs>
</svg>
